<?xml version="1.0" encoding="utf-8"?>
<!-- Generator: Adobe Illustrator 16.0.0, SVG Export Plug-In . SVG Version: 6.00 Build 0)  -->
<!DOCTYPE svg PUBLIC "-//W3C//DTD SVG 1.1//EN" "http://www.w3.org/Graphics/SVG/1.1/DTD/svg11.dtd">
<svg version="1.1" id="Layer_1" xmlns="http://www.w3.org/2000/svg" xmlns:xlink="http://www.w3.org/1999/xlink" x="0px" y="0px"
	 width="207.75px" height="57.311px" viewBox="0 0 207.75 57.311" enable-background="new 0 0 207.75 57.311" xml:space="preserve">
<g id="XMLID_1_">
	<g>
		<g>
			<g id="XMLID_216_">
				<path id="XMLID_233_" fill="#61BB4A" d="M18.693,24.53c0.514-0.842,1.118-1.621,1.813-2.31l-5.956-6.443
					c-1.481,1.409-2.75,3.057-3.749,4.854L18.693,24.53z"/>
				<path id="XMLID_232_" fill="#DFB442" d="M33.206,19.971c0.907,0.421,1.724,0.929,2.481,1.56l5.956-6.445
					c-1.574-1.349-3.327-2.457-5.263-3.266L33.206,19.971z"/>
				<path id="XMLID_231_" fill="#C6273A" d="M46.841,21.891l-7.89,3.897c0.361,0.868,0.633,1.798,0.786,2.757l8.767-0.81
					C48.231,25.667,47.658,23.719,46.841,21.891"/>
				<path id="XMLID_230_" fill="#4FA547" d="M38.375,24.677l7.892-3.896c-0.965-1.798-2.207-3.417-3.689-4.855l-5.926,6.445
					C37.319,23.06,37.892,23.837,38.375,24.677"/>
				<path id="XMLID_229_" fill="#3F824E" d="M17.121,30.222c0-0.178,0-0.358,0-0.539l-8.77-0.779c0,0.449-0.03,0.868-0.03,1.319
					c0,1.678,0.212,3.296,0.604,4.825l8.465-2.397C17.212,31.871,17.121,31.062,17.121,30.222"/>
				<path id="XMLID_228_" fill="#FAC12C" d="M37.288,37.356c-0.635,0.749-1.332,1.408-2.146,2.006l4.625,7.434
					c1.724-1.139,3.235-2.577,4.534-4.166L37.288,37.356z"/>
				<path id="XMLID_227_" fill="#F0513C" d="M39.857,30.222c0,0.811-0.09,1.619-0.273,2.397l8.465,2.399
					c0.394-1.529,0.605-3.147,0.605-4.796c0-0.419,0-0.809-0.03-1.229l-8.767,0.81C39.857,29.953,39.857,30.072,39.857,30.222"/>
				<path id="XMLID_226_" fill="#F99D3B" d="M19.841,37.535l-7.014,5.277c1.3,1.586,2.841,2.967,4.565,4.105l4.625-7.434
					C21.231,38.945,20.476,38.287,19.841,37.535"/>
				<path id="XMLID_225_" fill="#1298D5" d="M17.272,28.423c0.152-0.989,0.453-1.918,0.846-2.786l-7.861-3.897
					c-0.877,1.83-1.482,3.836-1.724,5.905L17.272,28.423z"/>
				<path id="XMLID_224_" fill="#A01C4A" d="M38.709,47.457l-4.626-7.432c-0.845,0.479-1.754,0.837-2.691,1.076l1.633,8.572
					C35.05,49.256,36.954,48.475,38.709,47.457"/>
				<path id="XMLID_223_" fill="#16C1E1" d="M39.253,33.818c-0.303,0.901-0.727,1.741-1.241,2.52l7.015,5.243
					c1.149-1.617,2.057-3.417,2.661-5.363L39.253,33.818z"/>
				<path id="XMLID_222_" fill="#F3723B" d="M30.122,41.373c-0.543,0.089-1.089,0.121-1.632,0.121c-0.454,0-0.876-0.032-1.331-0.089
					l-1.633,8.571c0.968,0.148,1.965,0.211,2.964,0.211c1.119,0,2.208-0.091,3.266-0.271L30.122,41.373z"/>
				<path id="XMLID_221_" fill="#EE3449" d="M29.215,18.953c0.967,0.06,1.934,0.24,2.811,0.54l3.174-8.124
					c-1.873-0.659-3.9-1.049-5.985-1.138V18.953z"/>
				<path id="XMLID_220_" fill="#E02570" d="M25.919,41.194c-0.999-0.24-1.936-0.572-2.783-1.051l-4.625,7.436
					c1.783,1.019,3.719,1.768,5.805,2.186L25.919,41.194z"/>
				<path id="XMLID_219_" fill="#164E6D" d="M25.073,19.462c0.906-0.299,1.874-0.448,2.872-0.508v-8.722
					c-2.117,0.06-4.142,0.449-6.048,1.078L25.073,19.462z"/>
				<path id="XMLID_218_" fill="#C09537" d="M19.056,36.516c-0.544-0.808-1.028-1.708-1.331-2.668L9.26,36.246
					c0.634,2.01,1.603,3.866,2.781,5.547L19.056,36.516z"/>
				<path id="XMLID_217_" fill="#0B6FA0" d="M21.444,21.381c0.756-0.57,1.573-1.079,2.449-1.469l-3.204-8.122
					c-1.906,0.779-3.628,1.858-5.202,3.147L21.444,21.381z"/>
			</g>
		</g>
	</g>
</g>
<g opacity="0.9">
	<g>
		<g>
			<path fill="#FFFFFF" d="M57.074,26.333c-1.002,0-1.876-0.12-2.626-0.358c-0.749-0.238-1.373-0.57-1.874-0.996
				c-0.5-0.428-0.881-0.937-1.14-1.528c-0.259-0.594-0.399-1.242-0.42-1.948h1.805c0.05,0.539,0.193,1.005,0.431,1.401
				c0.236,0.397,0.542,0.723,0.914,0.983c0.37,0.259,0.796,0.449,1.276,0.573c0.479,0.121,0.992,0.183,1.537,0.183
				c0.533,0,1.016-0.057,1.451-0.169c0.434-0.111,0.804-0.273,1.113-0.483c0.307-0.21,0.546-0.462,0.714-0.761
				c0.166-0.297,0.25-0.634,0.25-1.013c0-0.392-0.076-0.723-0.23-0.992c-0.154-0.27-0.404-0.506-0.75-0.709
				c-0.347-0.204-0.804-0.385-1.37-0.547c-0.568-0.162-1.26-0.325-2.08-0.492c-0.798-0.182-1.486-0.389-2.064-0.62
				c-0.578-0.232-1.051-0.502-1.423-0.814c-0.371-0.312-0.645-0.669-0.824-1.077c-0.179-0.405-0.268-0.872-0.268-1.397
				c0-0.574,0.123-1.102,0.367-1.585c0.246-0.483,0.59-0.9,1.036-1.25c0.445-0.35,0.977-0.624,1.596-0.819
				c0.619-0.197,1.308-0.293,2.063-0.293c0.798,0,1.524,0.097,2.18,0.293c0.654,0.196,1.219,0.478,1.696,0.845
				c0.475,0.367,0.851,0.815,1.123,1.344c0.272,0.53,0.42,1.126,0.441,1.792H60.17c-0.189-1.717-1.365-2.574-3.528-2.574
				c-1.058,0-1.872,0.195-2.441,0.586c-0.571,0.393-0.856,0.922-0.856,1.586c0,0.301,0.053,0.558,0.158,0.771
				c0.104,0.213,0.283,0.401,0.536,0.562c0.251,0.162,0.588,0.307,1.008,0.437c0.42,0.128,0.94,0.26,1.564,0.393
				c0.427,0.092,0.865,0.188,1.312,0.289c0.45,0.102,0.884,0.227,1.308,0.373c0.424,0.147,0.824,0.323,1.203,0.532
				c0.377,0.206,0.709,0.455,0.993,0.75c0.282,0.295,0.506,0.643,0.671,1.046c0.164,0.402,0.246,0.873,0.246,1.412
				c0,0.623-0.132,1.195-0.393,1.716c-0.262,0.521-0.629,0.971-1.097,1.349c-0.468,0.379-1.025,0.676-1.669,0.887
				C58.539,26.225,57.837,26.333,57.074,26.333z"/>
			<path fill="#FFFFFF" d="M77.786,18.897c0,4.79-2.415,7.183-7.246,7.183h-4.504V11.873h4.504
				C75.371,11.873,77.786,14.214,77.786,18.897z M75.843,18.897c0-0.824-0.082-1.57-0.246-2.229
				c-0.165-0.662-0.448-1.223-0.85-1.682c-0.403-0.459-0.948-0.81-1.633-1.054c-0.687-0.245-1.551-0.369-2.593-0.369h-2.605v10.828
				h2.605c1.035,0,1.897-0.125,2.583-0.374c0.685-0.248,1.231-0.608,1.638-1.081c0.405-0.473,0.691-1.048,0.856-1.728
				S75.843,19.758,75.843,18.897z"/>
			<path fill="#FFFFFF" d="M87.661,26.333c-1.029,0-1.965-0.178-2.809-0.531c-0.844-0.354-1.566-0.852-2.168-1.496
				c-0.602-0.643-1.067-1.419-1.397-2.326c-0.33-0.906-0.493-1.913-0.493-3.02c0-1.12,0.166-2.132,0.5-3.033
				c0.331-0.904,0.797-1.674,1.396-2.311c0.599-0.636,1.314-1.129,2.148-1.475c0.833-0.347,1.753-0.521,2.761-0.521
				c0.848,0,1.633,0.108,2.357,0.326c0.725,0.216,1.36,0.524,1.906,0.919c0.546,0.395,0.987,0.875,1.323,1.438
				c0.335,0.565,0.536,1.191,0.599,1.885H91.83c-0.036-0.461-0.158-0.875-0.374-1.239c-0.212-0.363-0.502-0.671-0.867-0.923
				c-0.363-0.252-0.795-0.445-1.296-0.577c-0.501-0.135-1.056-0.201-1.665-0.201c-0.728,0-1.39,0.126-1.989,0.379
				c-0.6,0.251-1.113,0.621-1.539,1.106c-0.427,0.487-0.759,1.086-0.997,1.796c-0.239,0.711-0.357,1.522-0.357,2.432
				c0,0.903,0.119,1.711,0.357,2.425c0.237,0.713,0.571,1.318,1.004,1.812c0.43,0.494,0.944,0.87,1.543,1.129
				c0.598,0.257,1.261,0.389,1.989,0.389c1.043,0,1.94-0.168,2.695-0.504c0.751-0.337,1.38-0.84,1.884-1.513v-2.174H88.47v-1.701
				h5.586v7.256h-1.354l-0.482-1.491C91.238,25.751,89.72,26.333,87.661,26.333z"/>
			<path fill="#FFFFFF" d="M101.422,26.333c-2.801,0-4.277-1.106-4.431-3.319h1.848c0.007,1.246,0.86,1.869,2.562,1.869
				c0.376,0,0.711-0.041,1.002-0.121c0.291-0.081,0.532-0.195,0.725-0.342c0.193-0.147,0.34-0.32,0.441-0.519
				c0.101-0.2,0.151-0.419,0.151-0.658c0-0.246-0.036-0.444-0.113-0.594c-0.078-0.149-0.224-0.283-0.442-0.399
				c-0.217-0.116-0.521-0.227-0.909-0.336c-0.387-0.106-0.895-0.247-1.517-0.415c-0.608-0.153-1.134-0.305-1.575-0.452
				c-0.442-0.146-0.803-0.329-1.087-0.546c-0.284-0.216-0.493-0.483-0.63-0.798c-0.137-0.314-0.205-0.712-0.205-1.195
				c0-0.421,0.089-0.811,0.269-1.172c0.179-0.36,0.433-0.673,0.767-0.939c0.332-0.265,0.734-0.474,1.207-0.623
				c0.473-0.152,1.003-0.227,1.59-0.227c2.703,0,4.075,0.959,4.116,2.877h-1.805c-0.064-0.959-0.789-1.439-2.173-1.439
				c-0.309,0-0.595,0.03-0.855,0.089c-0.264,0.06-0.491,0.147-0.684,0.262c-0.193,0.115-0.343,0.26-0.453,0.433
				c-0.106,0.171-0.162,0.365-0.162,0.581c0,0.204,0.027,0.371,0.08,0.501c0.052,0.127,0.171,0.247,0.361,0.355
				c0.19,0.11,0.471,0.221,0.847,0.332c0.374,0.112,0.882,0.244,1.526,0.398c0.624,0.147,1.165,0.302,1.628,0.461
				c0.459,0.161,0.843,0.357,1.143,0.59c0.302,0.231,0.526,0.513,0.671,0.846c0.149,0.333,0.223,0.741,0.223,1.233
				c0,0.462-0.096,0.893-0.29,1.292c-0.191,0.399-0.468,0.745-0.823,1.035c-0.358,0.29-0.791,0.519-1.297,0.687
				C102.62,26.249,102.054,26.333,101.422,26.333z"/>
			<path fill="#FFFFFF" d="M123,26.333c-1.028,0-1.966-0.178-2.809-0.531c-0.845-0.354-1.567-0.852-2.169-1.496
				c-0.602-0.643-1.068-1.419-1.396-2.326c-0.33-0.906-0.494-1.913-0.494-3.02c0-1.12,0.167-2.132,0.5-3.033
				c0.332-0.904,0.798-1.674,1.396-2.311c0.599-0.636,1.315-1.129,2.148-1.475c0.832-0.347,1.752-0.521,2.762-0.521
				c0.846,0,1.633,0.108,2.357,0.326c0.725,0.216,1.359,0.524,1.905,0.919c0.545,0.395,0.988,0.875,1.323,1.438
				c0.337,0.565,0.538,1.191,0.6,1.885h-1.953c-0.037-0.461-0.16-0.875-0.374-1.239c-0.213-0.363-0.502-0.671-0.866-0.923
				c-0.364-0.252-0.796-0.445-1.297-0.577c-0.5-0.135-1.056-0.201-1.663-0.201c-0.729,0-1.392,0.126-1.991,0.379
				c-0.6,0.251-1.111,0.621-1.539,1.106c-0.427,0.487-0.759,1.086-0.999,1.796c-0.237,0.711-0.357,1.522-0.357,2.432
				c0,0.903,0.12,1.711,0.357,2.425c0.239,0.713,0.573,1.318,1.005,1.812c0.429,0.494,0.943,0.87,1.542,1.129
				c0.599,0.257,1.262,0.389,1.991,0.389c1.044,0,1.94-0.168,2.693-0.504c0.753-0.337,1.381-0.84,1.886-1.513v-2.174h-3.749v-1.701
				h5.586v7.256h-1.354l-0.482-1.491C126.579,25.751,125.058,26.333,123,26.333z"/>
			<path fill="#FFFFFF" d="M142.117,26.08h-8.8V11.873h1.88v12.517h6.922v1.691H142.117z"/>
			<path fill="#FFFFFF" d="M151.595,11.619c0.987,0,1.896,0.178,2.722,0.531c0.832,0.354,1.548,0.85,2.152,1.492
				c0.602,0.641,1.07,1.413,1.41,2.315c0.34,0.903,0.51,1.904,0.51,3.003c0,1.094-0.17,2.091-0.506,2.993
				c-0.334,0.904-0.8,1.679-1.4,2.326c-0.6,0.647-1.314,1.152-2.148,1.514c-0.832,0.361-1.747,0.541-2.739,0.541
				c-0.994,0-1.907-0.179-2.74-0.536c-0.833-0.358-1.552-0.858-2.154-1.502c-0.602-0.643-1.071-1.419-1.409-2.326
				c-0.335-0.907-0.502-1.91-0.502-3.009c0-1.105,0.169-2.111,0.509-3.013c0.34-0.904,0.813-1.676,1.416-2.317
				c0.607-0.64,1.327-1.135,2.159-1.485C149.707,11.796,150.615,11.619,151.595,11.619z M151.583,24.715
				c0.706,0,1.357-0.129,1.954-0.389c0.594-0.258,1.105-0.635,1.538-1.128c0.431-0.495,0.767-1.097,1.007-1.812
				c0.243-0.713,0.361-1.522,0.361-2.427c0-0.903-0.118-1.708-0.361-2.42c-0.24-0.71-0.576-1.308-1.007-1.796
				c-0.433-0.486-0.938-0.856-1.528-1.113c-0.586-0.256-1.228-0.383-1.922-0.383c-0.707,0-1.36,0.13-1.958,0.389
				c-0.598,0.259-1.115,0.634-1.548,1.124c-0.434,0.49-0.773,1.09-1.014,1.795c-0.24,0.708-0.363,1.509-0.363,2.405
				c0,0.905,0.119,1.712,0.358,2.426c0.237,0.714,0.571,1.319,1.001,1.812c0.43,0.493,0.941,0.87,1.532,1.128
				C150.227,24.586,150.876,24.715,151.583,24.715z"/>
			<path fill="#FFFFFF" d="M172.61,21.943c0,1.344-0.446,2.37-1.345,3.076c-0.895,0.708-2.216,1.061-3.957,1.061h-5.336V11.873
				h5.051c0.744,0,1.416,0.083,2.018,0.251c0.601,0.168,1.113,0.408,1.537,0.719c0.422,0.313,0.752,0.692,0.98,1.139
				c0.234,0.449,0.349,0.954,0.349,1.513c0,0.701-0.169,1.298-0.509,1.791s-0.852,0.907-1.537,1.234
				c0.461,0.111,0.863,0.279,1.207,0.505c0.342,0.222,0.627,0.485,0.855,0.785c0.228,0.301,0.399,0.635,0.514,0.998
				C172.553,21.173,172.61,21.551,172.61,21.943z M163.854,17.826h3.158c1.036,0,1.801-0.166,2.297-0.499
				c0.491-0.332,0.739-0.887,0.739-1.664c0-0.35-0.057-0.656-0.168-0.919c-0.112-0.263-0.291-0.481-0.547-0.656
				c-0.252-0.175-0.582-0.307-0.991-0.394c-0.409-0.088-0.912-0.132-1.509-0.132h-2.979V17.826L163.854,17.826z M163.854,24.391
				h3.443c2.241,0,3.359-0.816,3.359-2.447c0-0.42-0.056-0.784-0.174-1.093c-0.114-0.307-0.312-0.563-0.593-0.761
				c-0.279-0.2-0.654-0.349-1.117-0.447c-0.465-0.097-1.049-0.146-1.75-0.146h-3.169V24.391z"/>
			<path fill="#FFFFFF" d="M187.99,26.08h-2.131l-1.651-4.317h-5.952l-1.566,4.317h-1.984l5.449-14.208h2.037L187.99,26.08z
				 M183.663,20.251l-2.511-6.573l-2.383,6.573H183.663z"/>
			<path fill="#FFFFFF" d="M199.43,26.08h-8.801V11.873h1.879v12.517h6.922V26.08z"/>
		</g>
	</g>
</g>
<g opacity="0.9">
	<g>
		<g>
			<path fill="#FFFFFF" d="M64.819,41.32c0,5.277-2.661,7.916-7.985,7.916H51.87V33.577h4.964
				C62.158,33.577,64.819,36.157,64.819,41.32z M62.68,41.32c0-0.912-0.092-1.731-0.271-2.461c-0.183-0.728-0.494-1.345-0.938-1.852
				c-0.444-0.505-1.044-0.892-1.799-1.163c-0.757-0.268-1.71-0.405-2.859-0.405h-2.871v11.934h2.871c1.14,0,2.09-0.138,2.847-0.412
				c0.755-0.273,1.358-0.67,1.806-1.191c0.447-0.521,0.76-1.154,0.942-1.904C62.588,43.116,62.68,42.27,62.68,41.32z"/>
			<path fill="#FFFFFF" d="M81.735,49.236h-2.35l-1.817-4.756h-6.563l-1.723,4.756h-2.188L73.1,33.577h2.245L81.735,49.236z
				 M76.967,42.813l-2.766-7.247l-2.628,7.247H76.967z"/>
			<path fill="#FFFFFF" d="M90.558,49.516c-1.104,0-2.068-0.135-2.894-0.395c-0.826-0.264-1.515-0.63-2.066-1.101
				c-0.552-0.47-0.97-1.032-1.256-1.683c-0.286-0.654-0.439-1.369-0.462-2.148h1.99c0.054,0.595,0.212,1.109,0.475,1.545
				c0.263,0.436,0.599,0.798,1.007,1.081c0.409,0.288,0.879,0.499,1.407,0.631c0.528,0.136,1.094,0.203,1.695,0.203
				c0.586,0,1.119-0.062,1.596-0.186c0.479-0.123,0.89-0.3,1.229-0.532c0.338-0.23,0.6-0.512,0.786-0.838
				c0.186-0.328,0.278-0.701,0.278-1.117c0-0.434-0.085-0.799-0.255-1.094c-0.17-0.297-0.445-0.558-0.827-0.779
				c-0.382-0.225-0.886-0.426-1.51-0.604c-0.625-0.178-1.388-0.357-2.291-0.543c-0.881-0.201-1.639-0.43-2.276-0.683
				c-0.636-0.255-1.16-0.553-1.567-0.896c-0.41-0.343-0.713-0.739-0.909-1.188c-0.197-0.446-0.295-0.961-0.295-1.538
				c0-0.633,0.136-1.217,0.405-1.748c0.271-0.532,0.649-0.993,1.14-1.378c0.491-0.386,1.077-0.685,1.76-0.903
				c0.683-0.215,1.441-0.324,2.273-0.324c0.881,0,1.682,0.109,2.402,0.324c0.721,0.217,1.344,0.527,1.869,0.932
				c0.525,0.406,0.938,0.898,1.238,1.481c0.302,0.583,0.464,1.241,0.487,1.974h-2.016c-0.208-1.89-1.503-2.837-3.887-2.837
				c-1.166,0-2.062,0.217-2.692,0.649c-0.628,0.431-0.943,1.015-0.943,1.747c0,0.333,0.058,0.616,0.174,0.852
				c0.117,0.234,0.313,0.441,0.589,0.62c0.279,0.177,0.648,0.338,1.113,0.481c0.462,0.142,1.036,0.287,1.724,0.434
				c0.471,0.1,0.953,0.206,1.447,0.318c0.494,0.11,0.974,0.248,1.44,0.411c0.467,0.161,0.909,0.356,1.325,0.584
				c0.417,0.228,0.783,0.501,1.093,0.827c0.313,0.322,0.559,0.708,0.741,1.151s0.273,0.964,0.273,1.558
				c0,0.686-0.146,1.317-0.434,1.893c-0.29,0.574-0.693,1.068-1.21,1.486c-0.518,0.416-1.131,0.742-1.841,0.978
				C92.173,49.396,91.398,49.516,90.558,49.516z"/>
			<path fill="#FFFFFF" d="M112.751,49.236h-2.094v-7.384h-8.149v7.384h-2.071V33.577h2.071V40h8.149v-6.423h2.094V49.236z"/>
			<path fill="#FFFFFF" d="M129.142,44.676c0,1.482-0.492,2.612-1.481,3.392c-0.986,0.779-2.441,1.169-4.362,1.169h-5.88V33.577
				h5.568c0.816,0,1.559,0.092,2.224,0.277c0.661,0.186,1.225,0.45,1.692,0.793c0.467,0.344,0.83,0.763,1.082,1.255
				c0.256,0.494,0.384,1.049,0.384,1.667c0,0.772-0.189,1.43-0.561,1.974c-0.375,0.544-0.942,0.995-1.697,1.359
				c0.51,0.122,0.954,0.308,1.332,0.555c0.376,0.247,0.692,0.536,0.942,0.868c0.25,0.332,0.44,0.698,0.567,1.1
				C129.079,43.828,129.142,44.244,129.142,44.676z M119.492,40.139h3.482c1.141,0,1.983-0.185,2.529-0.55
				c0.543-0.365,0.815-0.976,0.815-1.833c0-0.388-0.06-0.724-0.183-1.014c-0.126-0.291-0.323-0.53-0.602-0.724
				c-0.278-0.192-0.643-0.337-1.094-0.433c-0.453-0.098-1.005-0.145-1.661-0.145h-3.286V40.139L119.492,40.139z M119.492,47.373
				h3.795c2.469,0,3.704-0.9,3.704-2.697c0-0.463-0.063-0.863-0.191-1.201c-0.125-0.342-0.344-0.623-0.654-0.842
				c-0.309-0.221-0.719-0.383-1.234-0.49c-0.512-0.109-1.154-0.164-1.926-0.164h-3.494V47.373L119.492,47.373z"/>
			<path fill="#FFFFFF" d="M139.991,33.298c1.089,0,2.09,0.196,3.003,0.585c0.917,0.39,1.704,0.937,2.368,1.642
				c0.663,0.708,1.183,1.557,1.558,2.553c0.373,0.996,0.561,2.1,0.561,3.309c0,1.204-0.184,2.304-0.556,3.3
				c-0.371,0.995-0.886,1.849-1.545,2.562c-0.66,0.716-1.449,1.271-2.368,1.666c-0.918,0.398-1.923,0.6-3.021,0.6
				c-1.095,0-2.102-0.199-3.02-0.592c-0.917-0.393-1.71-0.945-2.374-1.656c-0.662-0.708-1.18-1.563-1.55-2.562
				c-0.371-0.999-0.556-2.105-0.556-3.318c0-1.219,0.186-2.326,0.561-3.32c0.376-0.996,0.896-1.846,1.563-2.553
				c0.666-0.706,1.46-1.251,2.378-1.638C137.913,33.492,138.912,33.298,139.991,33.298z M139.981,47.733
				c0.78,0,1.496-0.144,2.152-0.431c0.655-0.285,1.221-0.699,1.696-1.244c0.476-0.545,0.846-1.209,1.113-1.997
				c0.262-0.787,0.396-1.678,0.396-2.673c0-0.995-0.134-1.883-0.396-2.667c-0.268-0.784-0.638-1.443-1.113-1.979
				c-0.475-0.537-1.036-0.945-1.684-1.227c-0.651-0.281-1.356-0.423-2.118-0.423c-0.78,0-1.5,0.144-2.161,0.43
				c-0.658,0.285-1.228,0.699-1.706,1.238c-0.479,0.542-0.853,1.201-1.118,1.978c-0.264,0.781-0.398,1.665-0.398,2.651
				c0,0.996,0.129,1.888,0.394,2.673c0.263,0.788,0.63,1.452,1.105,1.997c0.473,0.545,1.038,0.959,1.69,1.244
				C138.486,47.59,139.201,47.733,139.981,47.733z"/>
			<path fill="#FFFFFF" d="M164.313,49.236h-2.349l-1.817-4.756h-6.561l-1.726,4.756h-2.188l6.009-15.659h2.244L164.313,49.236z
				 M159.547,42.813l-2.77-7.247l-2.627,7.247H159.547z"/>
			<path fill="#FFFFFF" d="M180.289,49.236h-2.257l-1.47-4.201c-0.129-0.363-0.305-0.697-0.525-1.001
				c-0.22-0.304-0.478-0.567-0.775-0.788c-0.297-0.219-0.625-0.392-0.985-0.515c-0.356-0.124-0.737-0.185-1.139-0.185h-3.843v6.689
				h-2.071V33.577h6.932c0.425,0,0.826,0.009,1.21,0.029c0.381,0.019,0.746,0.063,1.086,0.132c0.346,0.069,0.671,0.172,0.975,0.308
				c0.305,0.134,0.596,0.318,0.873,0.551c0.471,0.415,0.828,0.922,1.078,1.521c0.245,0.599,0.369,1.209,0.369,1.834
				c0,0.548-0.082,1.052-0.242,1.511c-0.162,0.459-0.397,0.864-0.701,1.221c-0.308,0.353-0.674,0.652-1.112,0.895
				c-0.435,0.243-0.923,0.42-1.462,0.527v0.036c1.094,0.346,1.931,1.293,2.511,2.835L180.289,49.236z M169.293,40.671h4.653
				c0.642,0,1.193-0.047,1.655-0.144c0.463-0.097,0.845-0.25,1.139-0.464c0.298-0.211,0.518-0.489,0.654-0.837
				c0.14-0.348,0.211-0.772,0.211-1.272c0-0.905-0.276-1.57-0.834-1.998c-0.553-0.43-1.396-0.644-2.522-0.644h-4.954v5.359H169.293z
				"/>
			<path fill="#FFFFFF" d="M197.158,41.32c0,5.277-2.664,7.916-7.988,7.916h-4.964V33.577h4.964
				C194.494,33.577,197.158,36.157,197.158,41.32z M195.016,41.32c0-0.912-0.09-1.731-0.27-2.461
				c-0.18-0.728-0.494-1.345-0.939-1.852c-0.441-0.505-1.043-0.892-1.799-1.163c-0.758-0.268-1.71-0.405-2.857-0.405h-2.869v11.934
				h2.869c1.139,0,2.09-0.138,2.846-0.412c0.756-0.273,1.355-0.67,1.804-1.191c0.448-0.521,0.765-1.154,0.944-1.904
				C194.926,43.116,195.016,42.27,195.016,41.32z"/>
		</g>
	</g>
</g>
</svg>
